<svg xmlns="http://www.w3.org/2000/svg" version="1.1" xmlns:xlink="http://www.w3.org/1999/xlink" xmlns:svgjs="http://svgjs.dev/svgjs" width="1000" height="1000" viewBox="0 0 1000 1000"><rect width="1000" height="1000" fill="#ffffff"></rect><g transform="matrix(0.7,0,0,0.7,149.57575757575756,282.1265587044535)"><svg viewBox="0 0 396 247" data-background-color="#ffffff" preserveAspectRatio="xMidYMid meet" height="623" width="1000" xmlns="http://www.w3.org/2000/svg" xmlns:xlink="http://www.w3.org/1999/xlink"><g id="tight-bounds" transform="matrix(1,0,0,1,0.2400000000000091,-0.09999999999999432)"><svg viewBox="0 0 395.52 247.2" height="247.2" width="395.52"><g><svg></svg></g><g><svg viewBox="0 0 395.52 247.2" height="247.2" width="395.52"><g transform="matrix(1,0,0,1,39.55199999999999,74.83112526617549)"><svg viewBox="0 0 316.416 97.53774946764901" height="97.53774946764901" width="316.416"><g><svg viewBox="0 0 316.416 97.53774946764901" height="97.53774946764901" width="316.416"><g><svg viewBox="0 0 316.416 97.53774946764901" height="97.53774946764901" width="316.416"><g transform="matrix(1,0,0,1,0,60.282242191447324)"><svg viewBox="0 0 316.416 37.25550727620168" height="37.25550727620168" width="316.416"><g id="textblocktransform"><svg viewBox="0 0 316.416 37.25550727620168" height="37.25550727620168" width="316.416" id="textblock"><g><svg viewBox="0 0 316.416 37.25550727620168" height="37.25550727620168" width="316.416"><g transform="matrix(1,0,0,1,0,0)"><svg width="316.416" viewBox="3.1 -39.55 340.12 40.05" height="37.25550727620168" data-palette-color="#4a596d"><path d="M22.55 0.5L22.55 0.5Q18.5 0.5 14.98-1.05 11.45-2.6 8.78-5.38 6.1-8.15 4.6-11.78 3.1-15.4 3.1-19.55L3.1-19.55Q3.1-23.65 4.58-27.28 6.05-30.9 8.72-33.65 11.4-36.4 14.93-37.98 18.45-39.55 22.55-39.55L22.55-39.55Q26.15-39.55 29.1-38.5 32.05-37.45 34.8-35.15L34.8-35.15Q35.25-34.8 35.33-34.33 35.4-33.85 35.2-33.43 35-33 34.6-32.8L34.6-32.8Q34.5-32.4 34.1-32.2 33.7-32 33.18-32.05 32.65-32.1 32.15-32.5L32.15-32.5Q30.2-34.2 27.9-35.02 25.6-35.85 22.55-35.85L22.55-35.85Q19.3-35.85 16.48-34.55 13.65-33.25 11.5-31 9.35-28.75 8.13-25.8 6.9-22.85 6.9-19.55L6.9-19.55Q6.9-16.15 8.13-13.2 9.35-10.25 11.5-8 13.65-5.75 16.48-4.48 19.3-3.2 22.55-3.2L22.55-3.2Q25.3-3.2 27.75-4.1 30.2-5 32.4-6.7L32.4-6.7Q33-7.2 33.68-7.1 34.35-7 34.85-6.5 35.35-6 35.35-5.2L35.35-5.2Q35.35-4.8 35.25-4.48 35.15-4.15 34.8-3.8L34.8-3.8Q32.25-1.45 29.1-0.48 25.95 0.5 22.55 0.5ZM35.35-17.6L35.35-5.2 31.55-6 31.55-16.05 23.75-16.05Q22.9-16.05 22.35-16.55 21.8-17.05 21.8-17.8L21.8-17.8Q21.8-18.55 22.35-19.03 22.9-19.5 23.75-19.5L23.75-19.5 33.4-19.5Q34.25-19.5 34.8-18.98 35.35-18.45 35.35-17.6L35.35-17.6ZM53.45 0.25L53.45 0.25Q49.4 0.25 46.27-1.53 43.15-3.3 41.37-6.45 39.6-9.6 39.6-13.65L39.6-13.65Q39.6-17.75 41.27-20.88 42.95-24 45.9-25.8 48.85-27.6 52.7-27.6L52.7-27.6Q56.5-27.6 59.32-25.88 62.15-24.15 63.7-21.1 65.25-18.05 65.25-14.15L65.25-14.15Q65.25-13.35 64.75-12.88 64.25-12.4 63.45-12.4L63.45-12.4 42.2-12.4 42.2-15.6 63.85-15.6 61.7-14.05Q61.75-16.95 60.65-19.25 59.55-21.55 57.52-22.85 55.5-24.15 52.7-24.15L52.7-24.15Q49.85-24.15 47.7-22.8 45.55-21.45 44.37-19.07 43.2-16.7 43.2-13.65L43.2-13.65Q43.2-10.6 44.52-8.25 45.85-5.9 48.15-4.55 50.45-3.2 53.45-3.2L53.45-3.2Q55.25-3.2 57.07-3.83 58.9-4.45 60-5.4L60-5.4Q60.55-5.85 61.25-5.88 61.95-5.9 62.45-5.5L62.45-5.5Q63.1-4.9 63.12-4.2 63.15-3.5 62.55-3L62.55-3Q60.9-1.6 58.35-0.68 55.8 0.25 53.45 0.25ZM83.5 0L82.45 0Q79.8 0 77.72-1.25 75.65-2.5 74.45-4.67 73.25-6.85 73.25-9.65L73.25-9.65 73.25-34.1Q73.25-34.95 73.77-35.5 74.3-36.05 75.15-36.05L75.15-36.05Q76-36.05 76.55-35.5 77.09-34.95 77.09-34.1L77.09-34.1 77.09-9.65Q77.09-7.1 78.59-5.48 80.09-3.85 82.45-3.85L82.45-3.85 83.8-3.85Q84.59-3.85 85.09-3.3 85.59-2.75 85.59-1.9L85.59-1.9Q85.59-1.05 85-0.53 84.4 0 83.5 0L83.5 0ZM82.75-23L70-23Q69.25-23 68.75-23.48 68.25-23.95 68.25-24.65L68.25-24.65Q68.25-25.4 68.75-25.88 69.25-26.35 70-26.35L70-26.35 82.75-26.35Q83.5-26.35 84-25.88 84.5-25.4 84.5-24.65L84.5-24.65Q84.5-23.95 84-23.48 83.5-23 82.75-23L82.75-23ZM108.94 0L108.94 0Q108.09 0 107.54-0.55 106.99-1.1 106.99-1.95L106.99-1.95 106.99-37.1Q106.99-37.95 107.54-38.5 108.09-39.05 108.94-39.05L108.94-39.05Q109.84-39.05 110.44-38.35L110.44-38.35 134.34-6.95 134.34-37.1Q134.34-37.95 134.89-38.5 135.44-39.05 136.29-39.05L136.29-39.05Q137.09-39.05 137.67-38.5 138.24-37.95 138.24-37.1L138.24-37.1 138.24-1.95Q138.24-1.1 137.67-0.55 137.09 0 136.29 0L136.29 0Q135.89 0 135.49-0.15 135.09-0.3 134.84-0.65L134.84-0.65 110.89-32.05 110.89-1.95Q110.89-1.1 110.32-0.55 109.74 0 108.94 0ZM160.14 0.25L160.14 0.25Q156.09 0.25 152.96-1.53 149.84-3.3 148.06-6.45 146.29-9.6 146.29-13.65L146.29-13.65Q146.29-17.75 147.96-20.88 149.64-24 152.59-25.8 155.54-27.6 159.39-27.6L159.39-27.6Q163.19-27.6 166.01-25.88 168.84-24.15 170.39-21.1 171.94-18.05 171.94-14.15L171.94-14.15Q171.94-13.35 171.44-12.88 170.94-12.4 170.14-12.4L170.14-12.4 148.89-12.4 148.89-15.6 170.54-15.6 168.39-14.05Q168.44-16.95 167.34-19.25 166.24-21.55 164.21-22.85 162.19-24.15 159.39-24.15L159.39-24.15Q156.54-24.15 154.39-22.8 152.24-21.45 151.06-19.07 149.89-16.7 149.89-13.65L149.89-13.65Q149.89-10.6 151.21-8.25 152.54-5.9 154.84-4.55 157.14-3.2 160.14-3.2L160.14-3.2Q161.94-3.2 163.76-3.83 165.59-4.45 166.69-5.4L166.69-5.4Q167.24-5.85 167.94-5.88 168.64-5.9 169.14-5.5L169.14-5.5Q169.79-4.9 169.81-4.2 169.84-3.5 169.24-3L169.24-3Q167.59-1.6 165.04-0.68 162.49 0.25 160.14 0.25ZM196.03 0L196.03 0Q195.44 0 195.06-0.2 194.69-0.4 194.28-0.9L194.28-0.9 185.63-11.9 184.13-13.2 175.44-24.25Q174.88-24.9 174.91-25.6 174.94-26.3 175.38-26.83 175.84-27.35 176.69-27.35L176.69-27.35Q177.53-27.35 178.13-26.75L178.13-26.75 186.53-16 187.88-14.9 197.19-3Q197.84-2.2 197.74-1.5 197.63-0.8 197.11-0.4 196.59 0 196.03 0ZM176.24 0L176.24 0Q175.44 0 174.96-0.5 174.49-1 174.46-1.7 174.44-2.4 174.99-3.05L174.99-3.05 184.19-14.55 186.34-11.7 177.59-0.6Q177.13 0 176.24 0ZM196.99-24.2L187.94-13 185.49-15.5 194.13-26.45Q194.49-26.95 194.91-27.15 195.34-27.35 195.78-27.35L195.78-27.35Q196.63-27.35 197.09-26.83 197.53-26.3 197.51-25.58 197.49-24.85 196.99-24.2L196.99-24.2ZM216.08 0L215.03 0Q212.38 0 210.31-1.25 208.23-2.5 207.03-4.67 205.83-6.85 205.83-9.65L205.83-9.65 205.83-34.1Q205.83-34.95 206.36-35.5 206.88-36.05 207.73-36.05L207.73-36.05Q208.58-36.05 209.13-35.5 209.68-34.95 209.68-34.1L209.68-34.1 209.68-9.65Q209.68-7.1 211.18-5.48 212.68-3.85 215.03-3.85L215.03-3.85 216.38-3.85Q217.18-3.85 217.68-3.3 218.18-2.75 218.18-1.9L218.18-1.9Q218.18-1.05 217.58-0.53 216.98 0 216.08 0L216.08 0ZM215.33-23L202.58-23Q201.83-23 201.33-23.48 200.83-23.95 200.83-24.65L200.83-24.65Q200.83-25.4 201.33-25.88 201.83-26.35 202.58-26.35L202.58-26.35 215.33-26.35Q216.08-26.35 216.58-25.88 217.08-25.4 217.08-24.65L217.08-24.65Q217.08-23.95 216.58-23.48 216.08-23 215.33-23L215.33-23ZM263.03 0L241.53 0Q240.73 0 240.15-0.55 239.58-1.1 239.58-1.95L239.58-1.95 239.58-37.1Q239.58-37.9 240.15-38.48 240.73-39.05 241.53-39.05L241.53-39.05Q242.33-39.05 242.9-38.48 243.48-37.9 243.48-37.1L243.48-37.1 243.48-3.7 263.03-3.7Q263.83-3.7 264.4-3.18 264.98-2.65 264.98-1.85L264.98-1.85Q264.98-1.05 264.4-0.53 263.83 0 263.03 0L263.03 0ZM273.48 0L273.48 0Q272.58 0 272.05-0.53 271.53-1.05 271.53-1.95L271.53-1.95 271.53-25.4Q271.53-26.3 272.05-26.83 272.58-27.35 273.48-27.35L273.48-27.35Q274.33-27.35 274.85-26.83 275.38-26.3 275.38-25.4L275.38-25.4 275.38-1.95Q275.38-1.05 274.85-0.53 274.33 0 273.48 0ZM273.43-32.55L273.43-32.55Q272.33-32.55 271.53-33.35 270.73-34.15 270.73-35.3L270.73-35.3Q270.73-36.55 271.55-37.27 272.38-38 273.48-38L273.48-38Q274.53-38 275.35-37.27 276.18-36.55 276.18-35.3L276.18-35.3Q276.18-34.15 275.38-33.35 274.58-32.55 273.43-32.55ZM308.62 0L308.62 0Q307.77 0 307.22-0.55 306.67-1.1 306.67-1.9L306.67-1.9 306.67-14.9Q306.67-18 305.5-20 304.32-22 302.3-23 300.27-24 297.72-24L297.72-24Q295.27-24 293.3-23.05 291.32-22.1 290.17-20.45 289.02-18.8 289.02-16.7L289.02-16.7 286.27-16.7Q286.37-19.85 287.97-22.33 289.57-24.8 292.22-26.23 294.87-27.65 298.12-27.65L298.12-27.65Q301.67-27.65 304.47-26.18 307.27-24.7 308.9-21.85 310.52-19 310.52-14.9L310.52-14.9 310.52-1.9Q310.52-1.1 309.97-0.55 309.42 0 308.62 0ZM287.12 0L287.12 0Q286.22 0 285.7-0.53 285.17-1.05 285.17-1.9L285.17-1.9 285.17-25.4Q285.17-26.3 285.7-26.83 286.22-27.35 287.12-27.35L287.12-27.35Q287.97-27.35 288.5-26.83 289.02-26.3 289.02-25.4L289.02-25.4 289.02-1.9Q289.02-1.05 288.5-0.53 287.97 0 287.12 0ZM331.42 0.25L331.42 0.25Q327.37 0.25 324.25-1.53 321.12-3.3 319.35-6.45 317.57-9.6 317.57-13.65L317.57-13.65Q317.57-17.75 319.25-20.88 320.92-24 323.87-25.8 326.82-27.6 330.67-27.6L330.67-27.6Q334.47-27.6 337.3-25.88 340.12-24.15 341.67-21.1 343.22-18.05 343.22-14.15L343.22-14.15Q343.22-13.35 342.72-12.88 342.22-12.4 341.42-12.4L341.42-12.4 320.17-12.4 320.17-15.6 341.82-15.6 339.67-14.05Q339.72-16.95 338.62-19.25 337.52-21.55 335.5-22.85 333.47-24.15 330.67-24.15L330.67-24.15Q327.82-24.15 325.67-22.8 323.52-21.45 322.35-19.07 321.17-16.7 321.17-13.65L321.17-13.65Q321.17-10.6 322.5-8.25 323.82-5.9 326.12-4.55 328.42-3.2 331.42-3.2L331.42-3.2Q333.22-3.2 335.05-3.83 336.87-4.45 337.97-5.4L337.97-5.4Q338.52-5.85 339.22-5.88 339.92-5.9 340.42-5.5L340.42-5.5Q341.07-4.9 341.1-4.2 341.12-3.5 340.52-3L340.52-3Q338.87-1.6 336.32-0.68 333.77 0.25 331.42 0.25Z" opacity="1" transform="matrix(1,0,0,1,0,0)" fill="#4a596d" class="wordmark-text-0" data-fill-palette-color="primary" id="text-0"></path></svg></g></svg></g></svg></g></svg></g><g transform="matrix(1,0,0,1,134.00557808573262,0)"><svg viewBox="0 0 48.40484382853477 51.487111055710734" height="51.487111055710734" width="48.40484382853477"><g><svg xmlns="http://www.w3.org/2000/svg" viewBox="40 32 418.708 445.37" x="0" y="0" height="51.487111055710734" width="48.40484382853477" class="icon-icon-0" data-fill-palette-color="accent" id="icon-0"><path d="M280 72V43.313L332.687 96H304A24.027 24.027 0 0 1 280 72ZM40 392V56A24.027 24.027 0 0 1 64 32H264V72a40.045 40.045 0 0 0 40 40h40V256H288a8 8 0 0 0-8 8V368H224a8 8 0 0 0-5.268 14.021L257.566 416H64A24.027 24.027 0 0 1 40 392Zm160-48a8 8 0 0 0-8-8H160a8 8 0 0 0 0 16h32A8 8 0 0 0 200 344Zm48-96a8 8 0 0 0-8-8H208a8 8 0 0 0 0 16h32A8 8 0 0 0 248 248Zm64-48a8 8 0 0 0-8-8H240a8 8 0 0 0 0 16h64A8 8 0 0 0 312 200ZM160 144a8 8 0 0 0 0 16H304a8 8 0 0 0 0-16ZM72 104a8 8 0 0 0 8 8h96a8 8 0 0 0 0-16H80A8 8 0 0 0 72 104Zm0 48a8 8 0 0 0 8 8h48a8 8 0 0 0 0-16H80A8 8 0 0 0 72 152Zm0 48a8 8 0 0 0 8 8H208a8 8 0 0 0 0-16H80A8 8 0 0 0 72 200Zm0 48a8 8 0 0 0 8 8h96a8 8 0 0 0 0-16H80A8 8 0 0 0 72 248Zm0 48a8 8 0 0 0 8 8H224a8 8 0 0 0 0-16H80A8 8 0 0 0 72 296Zm0 48a8 8 0 0 0 8 8h48a8 8 0 0 0 0-16H80A8 8 0 0 0 72 344Zm224 32a8 8 0 0 1-8 8H245.292L352 477.37 458.708 384H416a8 8 0 0 1-8-8V272H296Z" fill="#4a596d" data-fill-palette-color="accent"></path></svg></g></svg></g><g></g></svg></g></svg></g></svg></g><g><path d="M0 247.2v-247.2h395.52v247.2zM392.16 243.84v-240.48h-388.8v240.48z" fill="#4a596d" fill-rule="nonzero" stroke="none" stroke-width="1" stroke-linecap="butt" stroke-linejoin="miter" stroke-miterlimit="10" stroke-dasharray="" stroke-dashoffset="0" font-family="none" font-weight="none" font-size="none" text-anchor="none" style="mix-blend-mode: normal" data-fill-palette-color="tertiary"></path></g></svg></g><defs></defs></svg><rect width="395.52" height="247.2" fill="none" stroke="none" visibility="hidden"></rect></g></svg></g></svg>