<svg xmlns="http://www.w3.org/2000/svg" version="1.1" xmlns:xlink="http://www.w3.org/1999/xlink" xmlns:svgjs="http://svgjs.dev/svgjs" width="1000" height="1000" viewBox="0 0 1000 1000"><rect width="1000" height="1000" fill="#ffffff"></rect><g transform="matrix(0.7,0,0,0.7,149.57575757575756,282.1265587044535)"><svg viewBox="0 0 396 247" data-background-color="#ffffff" preserveAspectRatio="xMidYMid meet" height="623" width="1000" xmlns="http://www.w3.org/2000/svg" xmlns:xlink="http://www.w3.org/1999/xlink"><g id="tight-bounds" transform="matrix(1,0,0,1,0.2400000000000091,-0.09999999999999432)"><svg viewBox="0 0 395.52 247.2" height="247.2" width="395.52"><g><svg></svg></g><g><svg viewBox="0 0 395.52 247.2" height="247.2" width="395.52"><g transform="matrix(1,0,0,1,75.54432,54.461388509140846)"><svg viewBox="0 0 244.43135999999998 138.2772229817183" height="138.2772229817183" width="244.43135999999998"><g><svg viewBox="0 0 244.43135999999998 138.2772229817183" height="138.2772229817183" width="244.43135999999998"><g transform="matrix(1,0,0,1,0,102.88507162792429)"><svg viewBox="0 0 244.43135999999998 35.392151353794006" height="35.392151353794006" width="244.43135999999998"><g id="textblocktransform"><svg viewBox="0 0 244.43135999999998 35.392151353794006" height="35.392151353794006" width="244.43135999999998" id="textblock"><g><svg viewBox="0 0 244.43135999999998 35.392151353794006" height="35.392151353794006" width="244.43135999999998"><g transform="matrix(1,0,0,1,0,0)"><svg width="244.43135999999998" viewBox="0.8 -38.15 265.53 38.449999999999996" height="35.392151353794006" data-palette-color="#0080ff"><path d="M16.15 0L12.15 0 12.15-33.2 0.8-33.2 0.8-36.8 27.5-36.8 27.5-33.2 16.15-33.2 16.15 0ZM35.3 0.3L35.3 0.3Q32.35 0.3 30.45-1.45 28.55-3.2 28.55-6.4L28.55-6.4 28.55-8.3Q28.55-11.45 30.62-13.4 32.7-15.35 36.9-15.35L36.9-15.35 45.95-15.35 45.95-18.65Q45.95-20.3 45.37-21.48 44.8-22.65 43.32-23.3 41.85-23.95 39.05-23.95L39.05-23.95 30.75-23.95 30.75-26.3Q32.5-26.6 34.82-26.85 37.15-27.1 40.3-27.1L40.3-27.1Q43.55-27.15 45.7-26.3 47.85-25.45 48.87-23.63 49.9-21.8 49.9-18.85L49.9-18.85 49.9 0 46.85 0 46.1-3.05Q45.9-2.85 44.87-2.35 43.85-1.85 42.27-1.23 40.7-0.6 38.87-0.15 37.05 0.3 35.3 0.3ZM36.95-2.65L36.95-2.65Q37.85-2.6 39-2.85 40.15-3.1 41.35-3.43 42.55-3.75 43.57-4.1 44.6-4.45 45.25-4.7 45.9-4.95 45.95-4.95L45.95-4.95 45.95-13.35 37.8-13Q34.95-12.9 33.72-11.6 32.5-10.3 32.5-8.25L32.5-8.25 32.5-7.05Q32.5-5.45 33.17-4.48 33.85-3.5 34.87-3.1 35.9-2.7 36.95-2.65ZM67.75 0.05L64.34 0.05Q62.05 0.05 60.5-0.78 58.95-1.6 58.15-3.48 57.34-5.35 57.34-8.55L57.34-8.55 57.34-38.15 61.3-38.15 61.3-9.05Q61.3-6.65 61.75-5.43 62.2-4.2 63.05-3.73 63.9-3.25 65.05-3.1L65.05-3.1 67.75-2.8 67.75 0.05ZM82.24 0.3L82.24 0.3Q78.04 0.3 75.62-0.95 73.19-2.2 72.14-5.2 71.09-8.2 71.09-13.4L71.09-13.4Q71.09-18.7 72.17-21.68 73.24-24.65 75.69-25.85 78.14-27.05 82.29-27.05L82.29-27.05Q85.84-27.05 88.07-26.25 90.29-25.45 91.37-23.53 92.44-21.6 92.44-18.2L92.44-18.2Q92.44-15.85 91.52-14.43 90.59-13 88.87-12.38 87.14-11.75 84.79-11.75L84.79-11.75 75.04-11.75Q75.09-8.5 75.74-6.53 76.39-4.55 78.12-3.68 79.84-2.8 83.19-2.8L83.19-2.8 91.79-2.8 91.79-0.4Q89.49-0.1 87.29 0.1 85.09 0.3 82.24 0.3ZM74.99-14.35L74.99-14.35 84.49-14.35Q86.74-14.35 87.82-15.18 88.89-16 88.89-18.15L88.89-18.15Q88.89-20.45 88.22-21.73 87.54-23 86.12-23.53 84.69-24.05 82.29-24.05L82.29-24.05Q79.49-24.05 77.89-23.23 76.29-22.4 75.64-20.3 74.99-18.2 74.99-14.35ZM103.04 0L99.09 0 99.09-26.7 102.19-26.7 103.04-23.75Q104.94-25.1 107.49-26.13 110.04-27.15 112.79-27.15L112.79-27.15Q115.74-27.15 117.54-25.9 119.34-24.65 120.19-22.6 121.04-20.55 121.04-18.15L121.04-18.15 121.04 0 117.09 0 117.09-17.7Q117.09-19.4 116.42-20.73 115.74-22.05 114.52-22.8 113.29-23.55 111.49-23.55L111.49-23.55Q109.84-23.55 108.42-23.23 106.99-22.9 105.72-22.33 104.44-21.75 103.04-20.95L103.04-20.95 103.04 0ZM140.99 0L137.34 0Q134.74 0 133.04-0.85 131.34-1.7 130.54-3.6 129.74-5.5 129.79-8.65L129.79-8.65 129.94-23.45 125.69-23.45 125.69-26 129.99-26.7 130.64-34.15 133.69-34.15 133.69-26.7 141.39-26.7 141.39-23.45 133.69-23.45 133.69-8.65Q133.69-6.9 134.06-5.85 134.44-4.8 135.06-4.25 135.69-3.7 136.39-3.48 137.09-3.25 137.74-3.2L137.74-3.2 140.99-2.9 140.99 0ZM164.38 0L160.38 0 160.38-29.4Q160.38-31.55 161.01-32.98 161.63-34.4 162.68-35.23 163.73-36.05 165.03-36.43 166.33-36.8 167.63-36.8L167.63-36.8Q169.83-36.75 172.41-36.7 174.98-36.65 177.71-36.58 180.43-36.5 183.03-36.3L183.03-36.3 183.03-33.15 168.58-33.15Q166.58-33.15 165.48-32.05 164.38-30.95 164.38-28.8L164.38-28.8 164.38-19.25 180.83-19 180.83-15.95 164.38-15.7 164.38 0ZM199.08 0.05L195.68 0.05Q193.38 0.05 191.83-0.78 190.28-1.6 189.48-3.48 188.68-5.35 188.68-8.55L188.68-8.55 188.68-38.15 192.63-38.15 192.63-9.05Q192.63-6.65 193.08-5.43 193.53-4.2 194.38-3.73 195.23-3.25 196.38-3.1L196.38-3.1 199.08-2.8 199.08 0.05ZM213.98 0.3L213.98 0.3Q211.08 0.3 208.9-0.3 206.73-0.9 205.28-2.4 203.83-3.9 203.13-6.58 202.43-9.25 202.43-13.4L202.43-13.4Q202.43-17.6 203.13-20.28 203.83-22.95 205.28-24.43 206.73-25.9 208.9-26.48 211.08-27.05 213.98-27.05L213.98-27.05Q216.88-27.05 219.05-26.45 221.23-25.85 222.68-24.38 224.13-22.9 224.85-20.23 225.58-17.55 225.58-13.4L225.58-13.4Q225.58-9.2 224.85-6.53 224.13-3.85 222.7-2.38 221.28-0.9 219.08-0.3 216.88 0.3 213.98 0.3ZM213.98-2.95L213.98-2.95Q215.83-2.95 217.25-3.3 218.68-3.65 219.63-4.7 220.58-5.75 221.08-7.85 221.58-9.95 221.58-13.4L221.58-13.4Q221.58-16.9 221.08-18.95 220.58-21 219.63-22.05 218.68-23.1 217.25-23.45 215.83-23.8 213.98-23.8L213.98-23.8Q212.08-23.8 210.68-23.45 209.28-23.1 208.33-22.05 207.38-21 206.88-18.95 206.38-16.9 206.38-13.4L206.38-13.4Q206.38-9.95 206.88-7.85 207.38-5.75 208.33-4.7 209.28-3.65 210.68-3.3 212.08-2.95 213.98-2.95ZM240.78 0L236.48 0 228.38-26.7 232.43-26.7 238.98-3.7 245.73-26.7 249.18-26.7 255.93-3.7 262.28-26.7 266.33-26.7 258.28 0 253.93 0 247.38-21.4 240.78 0Z" opacity="1" transform="matrix(1,0,0,1,0,0)" fill="#000000" class="wordmark-text-0" data-fill-palette-color="primary" id="text-0"></path></svg></g></svg></g></svg></g></svg></g><g transform="matrix(1,0,0,1,79.12838170903612,0)"><svg viewBox="0 0 86.17459658192774 86.17459658192774" height="86.17459658192774" width="86.17459658192774"><g><svg></svg></g><g id="icon-0"><svg viewBox="0 0 86.17459658192774 86.17459658192774" height="86.17459658192774" width="86.17459658192774"><g><path d="M0 43.087c0-23.796 19.291-43.087 43.087-43.087 23.796 0 43.087 19.291 43.088 43.087 0 23.796-19.291 43.087-43.088 43.088-23.796 0-43.087-19.291-43.087-43.088zM43.087 82.983c22.034 0 39.896-17.862 39.896-39.896 0-22.034-17.862-39.896-39.896-39.895-22.034 0-39.896 17.862-39.895 39.895 0 22.034 17.862 39.896 39.895 39.896z" data-fill-palette-color="accent" fill="#000000" stroke="transparent"></path><ellipse rx="42.65642530805423" ry="42.65642530805423" cx="43.08729829096387" cy="43.08729829096387" fill="#000000" stroke="transparent" stroke-width="0" fill-opacity="1" data-fill-palette-color="accent"></ellipse></g><g transform="matrix(1,0,0,1,18.15275807499051,23.96315605281181)"><svg viewBox="0 0 49.86908043194673 38.24828447630412" height="38.24828447630412" width="49.86908043194673"><g><svg xmlns="http://www.w3.org/2000/svg" xmlns:xlink="http://www.w3.org/1999/xlink" version="1.1" x="0" y="0" viewBox="25.318962295415787 31.07100000000001 49.361521488440516 37.85900000000001" enable-background="new 0 0 100 100" xml:space="preserve" height="38.24828447630412" width="49.86908043194673" class="icon-cg-0" data-fill-palette-color="quaternary" id="cg-0"><path d="M73.789 58.976c-1.182-2.047-3.386-3.318-5.751-3.318-0.987 0-1.958 0.235-2.849 0.661l-8.713-10.916c0.868-0.984 1.512-2.159 1.861-3.466 0.597-2.228 0.29-4.554-0.863-6.55-1.537-2.662-4.403-4.316-7.48-4.316-1.507 0-2.996 0.4-4.307 1.158-1.998 1.152-3.427 3.014-4.023 5.24-0.598 2.228-0.292 4.553 0.861 6.549 0.288 0.5 0.637 0.951 1.012 1.375l-8.727 10.926c-0.891-0.425-1.861-0.66-2.848-0.66-2.365 0-4.569 1.271-5.752 3.318-0.885 1.535-1.121 3.323-0.662 5.035 0.458 1.712 1.557 3.143 3.09 4.027 1.01 0.583 2.155 0.891 3.314 0.891 2.365 0 4.568-1.271 5.752-3.318 0.885-1.534 1.12-3.322 0.662-5.035-0.238-0.888-0.65-1.697-1.204-2.396l8.714-10.911c0.814 0.443 1.699 0.751 2.623 0.916v7.655c-0.634 0.148-1.249 0.379-1.817 0.707-3.169 1.829-4.258 5.896-2.429 9.064 1.182 2.047 3.386 3.317 5.751 3.317 1.159 0 2.305-0.308 3.313-0.89 1.534-0.886 2.632-2.316 3.091-4.028s0.224-3.5-0.663-5.035c-0.926-1.603-2.48-2.72-4.246-3.133v-7.655c0.917-0.163 1.805-0.469 2.629-0.918l8.712 10.914c-1.631 2.07-1.94 5.009-0.544 7.428 1.182 2.047 3.386 3.317 5.751 3.317 1.159 0 2.305-0.308 3.313-0.89 1.534-0.886 2.632-2.316 3.091-4.028S74.676 60.511 73.789 58.976zM35.106 64.111c-0.647 1.122-1.856 1.818-3.153 1.818-0.633 0-1.26-0.169-1.814-0.488-0.84-0.485-1.441-1.269-1.692-2.206s-0.122-1.918 0.363-2.759c0.647-1.122 1.856-1.818 3.153-1.818 0.633 0 1.26 0.168 1.812 0.487 0.841 0.485 1.441 1.27 1.693 2.207C35.721 62.291 35.592 63.271 35.106 64.111zM53.148 60.476c0.485 0.841 0.614 1.82 0.363 2.759-0.252 0.938-0.853 1.722-1.693 2.207-0.553 0.319-1.18 0.487-1.813 0.487-1.297 0-2.506-0.696-3.153-1.817-1.002-1.736-0.404-3.965 1.331-4.967 0.552-0.318 1.177-0.486 1.81-0.487 0.003 0 0.005 0.001 0.008 0.001 0.001 0 0.003 0 0.004 0C51.298 58.661 52.502 59.357 53.148 60.476zM50.021 45.334c-0.007 0-0.014-0.002-0.021-0.002-0.005 0-0.01 0.002-0.015 0.002-2.001-0.009-3.862-1.085-4.862-2.816-0.752-1.303-0.951-2.818-0.562-4.271 0.391-1.453 1.322-2.668 2.626-3.42 0.855-0.494 1.827-0.756 2.808-0.756 2.009 0 3.88 1.08 4.883 2.816 0.752 1.303 0.952 2.82 0.562 4.273-0.389 1.453-1.32 2.667-2.623 3.419C51.964 45.071 50.998 45.332 50.021 45.334zM71.555 63.234c-0.252 0.938-0.853 1.722-1.693 2.207-0.553 0.319-1.18 0.487-1.813 0.487-1.297 0-2.506-0.696-3.153-1.817-1.002-1.736-0.405-3.965 1.331-4.967 0.553-0.318 1.179-0.487 1.812-0.487 1.297 0 2.506 0.697 3.153 1.818C71.677 61.316 71.806 62.296 71.555 63.234z" fill="#ffffff" data-fill-palette-color="quaternary"></path></svg></g></svg></g></svg></g></svg></g><g></g></svg></g></svg></g><g><path d="M103.254 46.106A122.216 122.216 0 0 1 292.266 46.106L289.074 46.106A119.024 119.024 0 0 0 106.446 46.106L103.254 46.106M103.254 201.094A122.216 122.216 0 0 0 292.266 201.094L289.074 201.094A119.024 119.024 0 0 1 106.446 201.094L103.254 201.094" fill="#000000" stroke="transparent" data-fill-palette-color="tertiary"></path></g></svg></g><defs></defs></svg><rect width="395.52" height="247.2" fill="none" stroke="none" visibility="hidden"></rect></g></svg></g></svg>