<svg xmlns="http://www.w3.org/2000/svg" version="1.1" xmlns:xlink="http://www.w3.org/1999/xlink" xmlns:svgjs="http://svgjs.dev/svgjs" width="1000" height="1000" viewBox="0 0 1000 1000"><rect width="1000" height="1000" fill="#ffffff"></rect><g transform="matrix(0.7,0,0,0.7,149.57575757575756,282.1265587044535)"><svg viewBox="0 0 396 247" data-background-color="#ffffff" preserveAspectRatio="xMidYMid meet" height="623" width="1000" xmlns="http://www.w3.org/2000/svg" xmlns:xlink="http://www.w3.org/1999/xlink"><g id="tight-bounds" transform="matrix(1,0,0,1,0.2400000000000091,-0.09999999999999432)"><svg viewBox="0 0 395.52 247.2" height="247.2" width="395.52"><g><svg></svg></g><g><svg viewBox="0 0 395.52 247.2" height="247.2" width="395.52"><g transform="matrix(1,0,0,1,68.15679769982842,94.8805)"><svg viewBox="0 0 259.20640460034315 57.43899999999999" height="57.43899999999999" width="259.20640460034315"><g><svg viewBox="0 0 259.20640460034315 57.43899999999999" height="57.43899999999999" width="259.20640460034315"><g><svg viewBox="0 0 259.20640460034315 57.43899999999999" height="57.43899999999999" width="259.20640460034315"><g id="textblocktransform"><svg viewBox="0 0 259.20640460034315 57.43899999999999" height="57.43899999999999" width="259.20640460034315" id="textblock"><g><svg viewBox="0 0 259.20640460034315 57.43899999999999" height="57.43899999999999" width="259.20640460034315"><g><svg><g></g><g></g></svg></g><g><svg><g></g><g><svg></svg></g></svg></g><g id="text-0"><svg viewBox="0 0 259.20640460034315 57.43899999999999" height="57.43899999999999" width="259.20640460034315"><g><svg xmlns="http://www.w3.org/2000/svg" xmlns:xlink="http://www.w3.org/1999/xlink" version="1.1" x="0" y="0" viewBox="6.67074567100769 14.509837495441754 88.21563481183142 71.71116250455825" enable-background="new 0 0 100 100" xml:space="preserve" height="57.43899999999999" width="70.65870460034314" class="icon-cg-0" data-fill-palette-color="accent" id="cg-0"><g fill="#636365" data-fill-palette-color="accent"><path fill="#636365" d="M67.539 22.815H20.016c-1.04 0-1.884-0.844-1.884-1.885 0-1.041 0.844-1.885 1.884-1.885h47.523c1.04 0 1.885 0.844 1.885 1.885C69.424 21.972 68.579 22.815 67.539 22.815z" data-fill-palette-color="accent"></path></g><g fill="#636365" data-fill-palette-color="accent"><path fill="#636365" d="M38.493 34.586H20.016c-1.04 0-1.884-0.844-1.884-1.885 0-1.042 0.844-1.886 1.884-1.886h18.477c1.042 0 1.885 0.844 1.885 1.886C40.378 33.742 39.534 34.586 38.493 34.586z" data-fill-palette-color="accent"></path></g><g fill="#636365" data-fill-palette-color="accent"><path fill="#636365" d="M54.605 58.169h-34.59c-1.04 0-1.884-0.843-1.884-1.885 0-1.04 0.844-1.885 1.884-1.885h34.59c1.042 0 1.887 0.845 1.887 1.885C56.492 57.326 55.647 58.169 54.605 58.169z" data-fill-palette-color="accent"></path></g><g fill="#636365" data-fill-palette-color="accent"><path fill="#636365" d="M83.118 58.169H63.503c-1.04 0-1.884-0.843-1.884-1.885 0-1.04 0.844-1.885 1.884-1.885h19.615c1.041 0 1.885 0.845 1.885 1.885C85.003 57.326 84.159 58.169 83.118 58.169z" data-fill-palette-color="accent"></path></g><g fill="#636365" data-fill-palette-color="accent"><path fill="#636365" d="M82.701 46.36H20.016c-1.04 0-1.884-0.844-1.884-1.885 0-1.042 0.844-1.884 1.884-1.884h62.686c1.041 0 1.886 0.843 1.886 1.884C84.587 45.517 83.742 46.36 82.701 46.36z" data-fill-palette-color="accent"></path></g><g fill="#636365" data-fill-palette-color="accent"><path fill="#636365" d="M12.909 27.367c-0.496 0-0.991-0.194-1.361-0.582l-4.355-4.552c-0.694-0.726-0.697-1.87-0.005-2.6l4.297-4.535c0.717-0.756 1.91-0.787 2.666-0.071 0.754 0.716 0.788 1.909 0.072 2.665l-3.064 3.232 3.115 3.254c0.718 0.753 0.691 1.946-0.06 2.666C13.847 27.193 13.378 27.367 12.909 27.367z" data-fill-palette-color="accent"></path></g><g fill="#636365" data-fill-palette-color="accent"><path fill="#636365" d="M12.909 74.438c-0.496 0-0.991-0.193-1.361-0.581l-4.355-4.552c-0.694-0.729-0.697-1.872-0.005-2.602l4.297-4.531c0.718-0.755 1.91-0.787 2.666-0.071 0.754 0.717 0.787 1.907 0.072 2.663l-3.064 3.23 3.115 3.254c0.718 0.754 0.691 1.946-0.06 2.664C13.847 74.264 13.378 74.438 12.909 74.438z" data-fill-palette-color="accent"></path></g><g fill="#636365" data-fill-palette-color="accent"><path fill="#636365" d="M71.189 86.221c-0.466 0-0.933-0.172-1.297-0.518-0.756-0.715-0.787-1.909-0.071-2.665l3.063-3.229-3.113-3.258c-0.721-0.752-0.693-1.944 0.06-2.665 0.752-0.719 1.944-0.692 2.665 0.061l4.354 4.555c0.694 0.726 0.696 1.869 0.006 2.599l-4.299 4.534C72.187 86.022 71.688 86.221 71.189 86.221z" data-fill-palette-color="accent"></path></g><g fill="#636365" data-fill-palette-color="accent"><path fill="#636365" d="M88.704 62.324c-0.466 0-0.932-0.171-1.297-0.517-0.756-0.716-0.788-1.909-0.072-2.665l3.063-3.232-3.112-3.253c-0.72-0.752-0.692-1.945 0.059-2.666 0.751-0.718 1.945-0.693 2.665 0.06l4.354 4.551c0.694 0.725 0.697 1.869 0.006 2.599l-4.297 4.534C89.702 62.128 89.203 62.324 88.704 62.324z" data-fill-palette-color="accent"></path></g><g fill="#636365" data-fill-palette-color="accent"><path fill="#636365" d="M44.114 69.901H20.016c-1.04 0-1.884-0.842-1.884-1.885 0-1.04 0.844-1.884 1.884-1.884h24.098c1.041 0 1.885 0.844 1.885 1.884C45.999 69.06 45.154 69.901 44.114 69.901z" data-fill-palette-color="accent"></path></g><g fill="#636365" data-fill-palette-color="accent"><path fill="#636365" d="M82.701 69.895H52.978c-1.041 0-1.885-0.844-1.885-1.884 0-1.044 0.844-1.886 1.885-1.886h29.724c1.041 0 1.886 0.842 1.886 1.886C84.587 69.051 83.742 69.895 82.701 69.895z" data-fill-palette-color="accent"></path></g><g fill="#636365" data-fill-palette-color="accent"><path fill="#636365" d="M65.816 81.679H20.016c-1.04 0-1.884-0.845-1.884-1.886 0-1.042 0.844-1.886 1.884-1.886h45.801c1.042 0 1.886 0.844 1.886 1.886C67.702 80.834 66.858 81.679 65.816 81.679z" data-fill-palette-color="accent"></path></g></svg></g><g transform="matrix(1,0,0,1,84.21970460034314,0)"><svg width="174.98669999999998" viewBox="4.65 -35.2 108.14 35.5" height="57.43899999999999" data-palette-color="#636365"><path d="M14.45-32.1Q19.15-32.1 21.7-29.68 24.25-27.25 24.25-22.7L24.25-22.7Q24.25-17.35 21.08-14.3 17.9-11.25 12.3-11.25L12.3-11.25 8.5-11.25 8.5-10 8.7 0 4.65 0 4.9-9.65 4.65-32.05 14.45-32.1ZM13.8-14.5Q16.9-15 18.53-17 20.15-19 20.15-22.35L20.15-22.35Q20.15-28.55 13.55-28.8L13.55-28.8 8.7-28.65 8.55-14.6 13.8-14.5ZM39.8-22.95Q40.4-22.95 41.1-22.85L41.1-22.85 41.1-19 40.65-18.85Q39.8-19.1 38.8-19.1L38.8-19.1Q37.15-19.1 35.77-17.78 34.4-16.45 33.05-13.55L33.05-13.55 33-10.05 33.25 0 29.3 0 29.55-9.7 29.35-22.65 33.1-23 33.05-18.3 33.35-18.3Q34.75-20.8 36.45-21.88 38.15-22.95 39.8-22.95L39.8-22.95ZM45.5 0L45.7-9.7 45.55-22.65 49.4-23 49.3-10.05 49.4 0 45.5 0ZM47.55-33.15Q48.55-33.15 49.15-32.55 49.75-31.95 49.75-30.9L49.75-30.9Q49.75-29.8 49.12-29.15 48.5-28.5 47.4-28.5L47.4-28.5Q46.35-28.5 45.77-29.1 45.2-29.7 45.2-30.8L45.2-30.8Q45.2-31.85 45.82-32.5 46.45-33.15 47.55-33.15L47.55-33.15ZM71.74 0L71.99-15.55Q72.04-17.6 71.04-18.75 70.04-19.9 68.09-19.9L68.09-19.9Q64.94-19.9 61.29-16.35L61.29-16.35 61.29-10.05 61.49 0 57.54 0 57.79-9.7 57.59-22.65 61.34-23 61.34-19.65 61.64-19.65Q64.74-22.4 67.99-23.2L67.99-23.2Q71.74-23.2 73.72-21.45 75.69-19.7 75.64-16.45L75.64-16.45 75.54-9.95 75.74 0 71.74 0ZM90.54-3.05Q92.19-3.05 94.14-4.05L94.14-4.05 94.59-3.75 94.19-1.15Q91.49 0.1 89.19 0.3L89.19 0.3Q86.34-0.25 85.09-1.8 83.84-3.35 83.84-6.3L83.84-6.3 83.99-9.85 83.94-20.2 80.79-20.2 80.59-20.5 80.84-22.85 83.89-22.85 83.89-26.55 87.34-28.05 87.74-27.7 87.64-22.85 94.44-22.85 94.64-22.55 94.39-20.2 87.64-20.2 87.39-6.65Q87.34-4.65 88.09-3.85 88.84-3.05 90.54-3.05L90.54-3.05ZM108.89-35.2Q110.69-35.2 112.79-34.75L112.79-34.75 112.49-31.65 112.19-31.4Q110.39-32.3 108.54-32.3L108.54-32.3Q106.59-32.3 105.54-31.08 104.49-29.85 104.44-27.45L104.44-27.45 104.39-22.85 110.39-22.85 110.54-22.55 110.29-20.2 104.34-20.2 104.24-10.05 104.49 0 100.54 0 100.84-9.75 100.74-20.2 97.29-20.2 97.09-20.5 97.34-22.85 100.74-22.85 100.69-26.85Q100.64-30.9 102.79-33.05 104.94-35.2 108.89-35.2L108.89-35.2Z" opacity="1" transform="matrix(1,0,0,1,0,0)" fill="#636365" class="wordmark-text-0" data-fill-palette-color="primary"></path></svg></g></svg></g></svg></g></svg></g></svg></g></svg></g></svg></g><g><path d="M0 247.2v-247.2h395.52v247.2zM390.34 242.02v-236.84h-385.16v236.84z" fill="#636365" fill-rule="nonzero" stroke="none" stroke-width="1" stroke-linecap="butt" stroke-linejoin="miter" stroke-miterlimit="10" stroke-dasharray="" stroke-dashoffset="0" font-family="none" font-weight="none" font-size="none" text-anchor="none" style="mix-blend-mode: normal" data-fill-palette-color="tertiary"></path></g></svg></g><defs></defs></svg><rect width="395.52" height="247.2" fill="none" stroke="none" visibility="hidden"></rect></g></svg></g></svg>